<?xml version="1.0" encoding="UTF-8"?>
<svg version="1.1" xmlns="http://www.w3.org/2000/svg" width="2000" height="762">
<path d="M0 0 C7.77858677 8.13584963 8.43958548 17.08528465 8.37704468 27.94616699 C8.38172465 29.2011573 8.38640462 30.4561476 8.39122641 31.74916792 C8.40369046 35.21182439 8.39758721 38.67423118 8.38826776 42.13688827 C8.38145863 45.87928525 8.3919677 49.62164036 8.40020752 53.36402893 C8.41352723 60.68715517 8.41067499 68.01018901 8.4019696 75.33331883 C8.39518651 81.28650553 8.39427903 87.23966638 8.39754105 93.19285583 C8.39800075 94.04107382 8.39846044 94.88929181 8.39893407 95.76321337 C8.39989328 97.48650699 8.40086592 99.2098006 8.40185185 100.9330942 C8.41040058 117.08150053 8.40057973 133.2298557 8.38445075 149.37825364 C8.37104804 163.22566475 8.37337627 177.07300041 8.38720703 190.92041016 C8.40327198 207.01216959 8.40957665 223.10388424 8.40037024 239.19565058 C8.39941462 240.9125026 8.39847151 242.62935463 8.39754105 244.34620667 C8.39707822 245.19086722 8.39661539 246.03552777 8.39613854 246.9057841 C8.3935514 252.84983362 8.3979137 258.79385467 8.40497971 264.73789978 C8.41340507 271.98455722 8.41109281 279.23111721 8.39513747 286.47776353 C8.38726867 290.17308182 8.38413929 293.86823778 8.39408493 297.56355476 C8.40471385 301.57347551 8.39199798 305.5829886 8.37704468 309.59289551 C8.38373684 310.75506198 8.39042901 311.91722846 8.39732397 313.1146121 C8.32968157 322.4679753 6.95509025 330.53548872 0.2073549 337.40234846 C-7.16033875 343.62360857 -16.73242942 343.84706088 -25.92105103 343.77073669 C-27.17775018 343.77627109 -28.43444934 343.78180549 -29.72923028 343.78750759 C-33.18744354 343.80215829 -36.64519662 343.79214384 -40.10339451 343.77777088 C-43.84439815 343.76660546 -47.58534014 343.77862189 -51.32633972 343.78761292 C-58.64253843 343.80150886 -65.95856392 343.79401665 -73.2747543 343.77893733 C-81.80149766 343.762035 -90.32819839 343.76529274 -98.85495333 343.76903141 C-114.07130588 343.77490313 -129.28757554 343.76076452 -144.50390625 343.73608398 C-159.25751857 343.71215679 -174.0110202 343.7050839 -188.76464844 343.71557617 C-204.84690495 343.72699289 -220.92911034 343.72890677 -237.01136625 343.71447808 C-238.72706373 343.7129523 -240.44276122 343.71143194 -242.15845871 343.70991707 C-243.42456458 343.70878035 -243.42456458 343.70878035 -244.71624834 343.70762066 C-250.65530841 343.70288433 -256.59434559 343.70472459 -262.5334053 343.70898247 C-269.77270131 343.71391582 -277.01189281 343.70789472 -284.25116493 343.68808817 C-287.94244221 343.67823663 -291.63356058 343.67308789 -295.32484627 343.68098068 C-299.3302903 343.68936986 -303.33531294 343.67441909 -307.34072876 343.6572113 C-308.501531 343.66322135 -309.66233323 343.66923139 -310.8583113 343.67542356 C-320.50457165 343.6000779 -328.16174069 342.07284423 -335.2734375 335.2734375 C-341.34028361 328.24794754 -341.40033931 321.18863558 -341.00390625 312.26953125 C-340.60152398 307.39496729 -340.0181046 302.55579413 -339.37890625 297.70703125 C-339.29154205 297.03856171 -339.20417786 296.37009216 -339.11416626 295.68136597 C-331.52296939 238.29822878 -309.57169204 182.7568242 -275.00390625 136.26953125 C-274.57513184 135.68913086 -274.14635742 135.10873047 -273.70458984 134.51074219 C-258.91527067 114.58007172 -241.93734089 95.33628389 -223.00390625 79.26953125 C-221.658125 78.09003906 -221.658125 78.09003906 -220.28515625 76.88671875 C-168.36371715 31.67758897 -102.48590977 3.77916121 -34.37890625 -4.60546875 C-33.4031665 -4.72567383 -32.42742676 -4.84587891 -31.42211914 -4.96972656 C-8.68709314 -7.5017198 -8.68709314 -7.5017198 0 0 Z " fill="#000000" transform="translate(360.00390625,11.73046875)"/>
<path d="M0 0 C1.25499031 -0.00467997 2.50998061 -0.00935994 3.80300093 -0.01418173 C7.2656574 -0.02664579 10.72806418 -0.02054253 14.19072127 -0.01122308 C17.93311826 -0.00441395 21.67547337 -0.01492302 25.41786194 -0.02316284 C32.74098818 -0.03648255 40.06402202 -0.03363031 47.38715184 -0.02492492 C53.34033853 -0.01814183 59.29349939 -0.01723435 65.24668884 -0.02049637 C66.51901582 -0.02118592 66.51901582 -0.02118592 67.81704637 -0.0218894 C69.54033999 -0.0228486 71.26363361 -0.02382124 72.98692721 -0.02480717 C89.13533353 -0.0333559 105.28368871 -0.02353505 121.43208665 -0.00740607 C135.27949776 0.00599664 149.12683341 0.0036684 162.97424316 -0.01016235 C179.0660026 -0.0262273 195.15771725 -0.03253197 211.24948359 -0.02332556 C212.96633561 -0.02236994 214.68318764 -0.02142683 216.40003967 -0.02049637 C217.6670305 -0.01980213 217.6670305 -0.01980213 218.95961711 -0.01909386 C224.90366663 -0.01650672 230.84768768 -0.02086902 236.79173279 -0.02793503 C244.03839023 -0.03636039 251.28495022 -0.03404813 258.53159654 -0.0180928 C262.22691483 -0.01022399 265.92207079 -0.00709462 269.61738777 -0.01704025 C273.62730852 -0.02766917 277.63682161 -0.0149533 281.64672852 0 C282.80889499 -0.00669217 283.97106147 -0.01338433 285.16844511 -0.02027929 C295.04186066 0.05112406 302.38370979 1.67464203 309.66320801 8.54891968 C314.48153198 13.8660819 315.44545383 19.8297934 315.45479202 26.76558304 C315.45863317 27.83939043 315.46247431 28.91319783 315.46643186 30.01954484 C315.46556537 31.19336268 315.46469889 32.36718052 315.46380615 33.5765686 C315.46826284 35.45392751 315.46826284 35.45392751 315.47280955 37.36921287 C315.48086642 40.84082788 315.48266839 44.3124222 315.48340702 47.78404546 C315.48525985 51.52922827 315.49280832 55.2744004 315.49954224 59.01957703 C315.51311647 67.20763916 315.51914878 75.39569638 315.52355289 83.58376789 C315.5263167 88.69743516 315.53055429 93.81110055 315.53505707 98.92476654 C315.54724825 113.08610541 315.55754806 127.24744277 315.56093216 141.40878677 C315.56115173 142.31490376 315.56137129 143.22102076 315.56159751 144.15459584 C315.56181579 145.06286524 315.56203407 145.97113463 315.56225896 146.90692735 C315.56270242 148.74738964 315.56314899 150.58785192 315.56359863 152.42831421 C315.56382006 153.34124464 315.56404149 154.25417508 315.56426963 155.19477007 C315.56821754 169.98704066 315.58567201 184.779262 315.60895815 199.57151356 C315.63267873 214.76247398 315.64513432 229.95340968 315.64630008 245.14438891 C315.64721641 253.67197271 315.65295824 262.19949231 315.67111969 270.72705841 C315.68653016 277.98843935 315.69163554 285.24973624 315.68338159 292.51113042 C315.67947851 296.21453079 315.68038786 299.91776195 315.69443893 303.62114143 C315.70954733 307.64001568 315.70130134 311.65850968 315.69085693 315.67739868 C315.70294154 317.42474111 315.70294154 317.42474111 315.71527028 319.20738339 C315.65654621 328.8693551 314.13796032 336.52698406 307.32727051 343.65048218 C300.30178055 349.71732828 293.24246859 349.77738398 284.32336426 349.38095093 C279.4488003 348.97856865 274.60962713 348.39514927 269.76086426 347.75595093 C269.09239471 347.66858673 268.42392517 347.58122253 267.73519897 347.49121094 C219.49144228 341.10905979 171.43001532 324.70016127 130.32336426 298.38095093 C129.60712891 297.92542847 128.89089355 297.46990601 128.1529541 297.00057983 C99.99947921 278.97723598 73.0044163 256.93040644 51.32336426 231.38095093 C50.14387207 230.03516968 50.14387207 230.03516968 48.94055176 228.66220093 C2.26787107 175.05991396 -38.70248028 92.1303804 -33.67663574 19.38095093 C-31.82319768 12.34784468 -27.92317801 7.1661398 -21.67663574 3.38095093 C-14.51417978 0.17663495 -7.75091321 -0.0446325 0 0 Z " fill="#000000" transform="translate(52.6766357421875,406.6190490722656)"/>
<path d="M0 0 C1.07644775 0.1330957 2.15289551 0.26619141 3.26196289 0.40332031 C70.84323516 9.15506326 135.10047533 36.76315126 186.4375 81.8125 C187.50097656 82.72708984 187.50097656 82.72708984 188.5859375 83.66015625 C199.87643291 93.40684923 210.71635883 103.48957988 220.4375 114.8125 C221.33273112 115.83256008 222.22861434 116.85204808 223.125 117.87109375 C271.14506504 172.76254267 308.91841302 251.32074266 307.64453125 325.4375 C306.97149909 333.15832174 303.03341914 338.63418676 297.4375 343.8125 C292.13357178 347.1009355 287.21708019 347.93562841 281.05286789 347.94392776 C279.97906049 347.94776891 278.9052531 347.95161005 277.79890609 347.9555676 C276.62508825 347.95470112 275.4512704 347.95383463 274.24188232 347.95294189 C272.99030972 347.95591302 271.73873711 347.95888414 270.44923806 347.9619453 C266.97762305 347.97000216 263.50602873 347.97180413 260.03440547 347.97254276 C256.28922266 347.97439559 252.54405052 347.98194406 248.7988739 347.98867798 C240.61081177 348.00225221 232.42275454 348.00828452 224.23468304 348.01268864 C219.12101577 348.01545244 214.00735038 348.01969004 208.89368439 348.02419281 C194.73234552 348.036384 180.57100816 348.0466838 166.40966415 348.0500679 C165.05048867 348.05039725 165.05048867 348.05039725 163.66385509 348.05073325 C162.75558569 348.05095153 161.84731629 348.05116981 160.91152358 348.0513947 C159.07106129 348.05183817 157.23059901 348.05228473 155.39013672 348.05273438 C154.47720629 348.0529558 153.56427585 348.05317723 152.62368086 348.05340537 C137.83141026 348.05735328 123.03918893 348.07480776 108.24693736 348.0980939 C93.05597695 348.12181447 77.86504125 348.13427006 62.67406201 348.13543582 C54.14647821 348.13635215 45.61895862 348.14209398 37.09139252 348.16025543 C29.83001158 348.1756659 22.56871469 348.18077128 15.30732051 348.17251733 C11.60392013 348.16861425 7.90068898 348.1695236 4.19730949 348.18357468 C0.17843525 348.19868307 -3.84005875 348.19043708 -7.85894775 348.17999268 C-9.02384271 348.18804908 -10.18873766 348.19610548 -11.38893247 348.20440602 C-21.27310688 348.14433144 -28.61489427 346.52631753 -35.90234375 339.64453125 C-40.72446277 334.32318109 -41.68334905 328.35545307 -41.69672108 321.41504383 C-41.70117892 320.33836974 -41.70563676 319.26169565 -41.71022969 318.15239507 C-41.71004533 316.9753684 -41.70986097 315.79834173 -41.70967102 314.58564758 C-41.71334771 313.33069699 -41.7170244 312.0757464 -41.7208125 310.782767 C-41.73080994 307.30168353 -41.73454564 303.82061731 -41.73720181 300.33952153 C-41.74111149 296.58409275 -41.75068926 292.82867754 -41.75941467 289.07325745 C-41.77915882 280.0058826 -41.78924202 270.93850667 -41.79814246 261.87111571 C-41.80252812 257.59922337 -41.80789416 253.32733227 -41.81313133 249.0554409 C-41.83014043 234.85207152 -41.84463468 220.6487029 -41.85188007 206.4453249 C-41.8537899 202.76115734 -41.85571025 199.0769898 -41.85766602 195.39282227 C-41.85814976 194.47716353 -41.8586335 193.56150479 -41.8591319 192.61809882 C-41.86743255 177.78445552 -41.89277149 162.95089284 -41.92524669 148.11728475 C-41.95832845 132.88224937 -41.97632978 117.64725495 -41.97952431 102.41218346 C-41.98168821 93.86051092 -41.99041947 85.30895601 -42.01598549 76.7573185 C-42.03770762 69.47472386 -42.04573543 62.19227545 -42.03601871 54.90965209 C-42.03147856 51.19595048 -42.03334331 47.48255049 -42.05278015 43.76889038 C-42.07369908 39.73713907 -42.0634122 35.70605462 -42.05024719 31.67427063 C-42.06121644 30.50839757 -42.07218568 29.34252451 -42.08348733 28.14132196 C-42.01296507 19.18549184 -40.40154775 11.68580894 -34.3125 4.875 C-24.62565431 -3.82674274 -12.00773467 -1.49020158 0 0 Z " fill="#000000" transform="translate(462.5625,9.1875)"/>
<path d="M0 0 C5.36403514 4.78151549 8.5519212 10.55617146 9.27861285 17.76314735 C9.38623186 21.07109752 9.39976209 24.36732387 9.38095093 27.67700195 C9.3856309 28.94409406 9.39031087 30.21118616 9.39513266 31.516675 C9.4076141 35.01772506 9.40148545 38.51852865 9.39217401 42.01957941 C9.38537207 45.80151159 9.3958704 49.58340209 9.40411377 53.36532593 C9.41744111 60.76779646 9.41457783 68.17017564 9.40587585 75.57264972 C9.39909577 81.58975139 9.39818398 87.60682749 9.4014473 93.62393188 C9.401907 94.48090017 9.40236669 95.33786845 9.40284032 96.22080547 C9.40379952 97.96181735 9.40477216 99.70282923 9.4057581 101.4438411 C9.41430906 117.76246329 9.40448246 134.08103489 9.388357 150.39964879 C9.37495408 164.39634067 9.37728226 178.3929579 9.39111328 192.38964844 C9.40717427 208.650591 9.41348512 224.91148924 9.40427649 241.17243862 C9.40332086 242.90698178 9.40237775 244.64152494 9.4014473 246.37606812 C9.40098447 247.2294567 9.40052164 248.08284528 9.40004479 248.96209413 C9.39745646 254.97072211 9.40182252 260.97932194 9.40888596 266.98794556 C9.41730692 274.3122428 9.41500829 281.63644361 9.39904372 288.96072984 C9.39116901 292.69642204 9.38805568 296.43195355 9.39799118 300.1676445 C9.40860462 304.21956841 9.39591655 308.27108794 9.38095093 312.32299805 C9.38764309 313.50043233 9.39433526 314.67786661 9.40123022 315.89098072 C9.33399195 325.26646597 7.88448074 332.11551926 1 339 C-4.31785226 342.74042193 -8.90373612 344.12290024 -15.32684708 344.13142776 C-16.4132137 344.13526891 -17.49958033 344.13911005 -18.61886716 344.1430676 C-20.40833205 344.14176787 -20.40833205 344.14176787 -22.23394775 344.14044189 C-24.13558469 344.14489858 -24.13558469 344.14489858 -26.07563853 344.1494453 C-29.59704974 344.1575131 -33.11844056 344.15930474 -36.63985991 344.16004276 C-40.436848 344.1618937 -44.23382552 344.16944123 -48.0308075 344.17617798 C-56.33456051 344.18976023 -64.63830869 344.19578584 -72.94207096 344.20018864 C-78.12691666 344.20295122 -83.31176049 344.2071886 -88.49660492 344.21169281 C-102.8517762 344.2238853 -117.20694599 344.23418468 -131.56212234 344.2375679 C-132.94028352 344.23789725 -132.94028352 344.23789725 -134.34628634 344.23823325 C-135.26725909 344.23845153 -136.18823184 344.23866981 -137.13711286 344.2388947 C-139.00335519 344.23933817 -140.86959752 344.23978473 -142.73583984 344.24023438 C-144.1244209 344.24056652 -144.1244209 344.24056652 -145.5410541 344.24090537 C-160.54099237 344.24485338 -175.54088205 344.26230756 -190.54080155 344.2855939 C-205.94077775 344.30930834 -221.34072957 344.32176979 -236.74072433 344.32293582 C-245.38733932 344.32385252 -254.03389102 344.32960369 -262.68048859 344.34775543 C-270.04329794 344.36315766 -277.40602444 344.36827617 -284.76884684 344.36001733 C-288.52477239 344.35611126 -292.28053108 344.35703822 -296.03643608 344.37107468 C-300.11045041 344.38616059 -304.18408892 344.37794587 -308.25811768 344.36749268 C-310.03419824 344.37957728 -310.03419824 344.37957728 -311.84615922 344.39190602 C-319.50469604 344.34589155 -325.04521849 343.39126324 -331.6875 339.375 C-336.77096769 334.15414129 -339.93808535 327.87408824 -340.0546875 320.578125 C-337.76344724 250.14339259 -308.44885738 180.73704092 -265 126 C-264.27296875 125.07832031 -263.5459375 124.15664063 -262.796875 123.20703125 C-248.47351295 105.35435157 -232.13227559 87.98850955 -214 74 C-212.94607277 73.12617639 -211.89550185 72.24829471 -210.84765625 71.3671875 C-180.75560159 46.27343079 -144.96042083 26.81488955 -108 14 C-106.56285645 13.49774902 -106.56285645 13.49774902 -105.09667969 12.98535156 C-22.38721275 -15.58603419 -22.38721275 -15.58603419 0 0 Z " fill="#000000" transform="translate(753,406)"/>
<path d="M0 0 C59.41851852 0 59.41851852 0 75 14 C76.94921875 16.55078125 76.94921875 16.55078125 78.6875 19.3125 C79.26886719 20.21613281 79.85023437 21.11976563 80.44921875 22.05078125 C83.68978906 28.2135787 84.36308587 33.99063441 84.3125 40.8125 C84.30686035 41.60785156 84.3012207 42.40320313 84.29541016 43.22265625 C84.07024531 54.1375779 80.85158017 64.32669378 72.8203125 72.11328125 C68.66564703 75.49156984 65.11074814 77.3628815 60 79 C68.18907387 93.72222969 76.46263181 108.37633138 85.09912109 122.84082031 C86.11121011 124.53765297 87.11825665 126.23749028 88.125 127.9375 C88.68445312 128.87464844 89.24390625 129.81179688 89.8203125 130.77734375 C91 133 91 133 91 135 C87.10517784 135.23282073 83.21214146 135.37456639 79.3125 135.5 C78.20970703 135.56703125 77.10691406 135.6340625 75.97070312 135.703125 C68.06788389 135.89412969 68.06788389 135.89412969 65.33447266 133.60546875 C63.963236 131.47329231 62.99358251 129.33250245 62 127 C61.00386681 125.0993826 59.99798246 123.20385606 58.984375 121.3125 C57.90354725 119.20972035 56.82551935 117.1054997 55.75 115 C51.51437171 106.76375402 47.20770147 98.59627512 42.54003906 90.59570312 C40 86.20068777 40 86.20068777 40 84 C38.02 84.495 38.02 84.495 36 85 C31.05 85 26.1 85 21 85 C21 101.5 21 118 21 135 C14.07 135 7.14 135 0 135 C0 90.45 0 45.9 0 0 Z M21 18 C21 34.17 21 50.34 21 67 C40.20524937 67.85759972 40.20524937 67.85759972 56.4375 60.75 C61.63555295 55.17160171 63.6720244 49.26368282 64.25 41.75 C63.79592779 34.93891687 62.41465515 29.87631933 57.3125 25.125 C46.49464622 16.55011407 34.66067089 18 21 18 Z " fill="#000000" transform="translate(1781,427)"/>
<path d="M0 0 C6.93 0 13.86 0 21 0 C21.33 18.81 21.66 37.62 22 57 C26.95 50.565 26.95 50.565 32 44 C38.25 35.875 38.25 35.875 44.5 27.75 C44.9129834 27.21310547 45.3259668 26.67621094 45.75146484 26.12304688 C46.57985237 25.04617549 47.40830228 23.96935211 48.23681641 22.89257812 C50.39635041 20.0857793 52.55460149 17.27800665 54.7109375 14.46875 C55.37996094 13.59766602 55.37996094 13.59766602 56.0625 12.70898438 C57.2998068 11.09790782 58.53663757 9.48646571 59.7734375 7.875 C60.87558594 6.451875 60.87558594 6.451875 62 5 C62.49242187 4.05769531 62.98484375 3.11539062 63.4921875 2.14453125 C67.8472823 -1.57968533 73.24784116 -0.51141008 78.75 -0.3125 C80.51150391 -0.27866211 80.51150391 -0.27866211 82.30859375 -0.24414062 C85.20701637 -0.1852296 88.10286427 -0.10301631 91 0 C89.80110665 3.28429234 88.55740756 5.85273701 86.3125 8.53125 C85.78382324 9.1701416 85.25514648 9.8090332 84.71044922 10.46728516 C84.14600098 11.13808105 83.58155273 11.80887695 83 12.5 C81.81375222 13.93377836 80.62887096 15.36868835 79.4453125 16.8046875 C78.85911133 17.51463867 78.27291016 18.22458984 77.66894531 18.95605469 C75.34542072 21.80165853 73.10057836 24.70250961 70.875 27.625 C67.40534567 32.17047248 63.90782991 36.69095007 60.375 41.1875 C59.91818848 41.77208984 59.46137695 42.35667969 58.99072266 42.95898438 C56.86652562 45.66903511 54.71658431 48.33506621 52.4921875 50.96484375 C51.38230469 52.28162109 51.38230469 52.28162109 50.25 53.625 C49.26773437 54.75808594 49.26773437 54.75808594 48.265625 55.9140625 C46.79024034 57.85994759 46.79024034 57.85994759 47.22680664 59.83544922 C48.1688982 62.47282964 49.48864459 64.43000186 51.10546875 66.71875 C51.75225586 67.64091309 52.39904297 68.56307617 53.06542969 69.51318359 C53.76571289 70.49883301 54.46599609 71.48448242 55.1875 72.5 C55.90711914 73.52303223 56.62673828 74.54606445 57.36816406 75.60009766 C58.85491274 77.71324133 60.34402732 79.82472232 61.83544922 81.93457031 C64.41036139 85.58115245 66.96721039 89.24009334 69.5222168 92.90063477 C74.45611943 99.96649646 79.41097237 107.01777528 84.375 114.0625 C84.86419922 114.75722412 85.35339844 115.45194824 85.85742188 116.16772461 C89.38765605 121.16748498 92.99584807 126.10219611 96.671875 130.99609375 C98 133 98 133 98 135 C91.41896925 135.50836614 84.86295219 135.79362488 78.26171875 135.64453125 C77.17592529 135.62237549 76.09013184 135.60021973 74.97143555 135.57739258 C71.3107381 134.86606652 69.8211001 133.58713764 67.3125 130.875 C66.52277501 129.27498426 65.73959245 127.67063848 65.01953125 126.03808594 C62.78427719 121.56971886 59.67289723 117.58335144 56.8125 113.5 C55.50721296 111.58551368 54.20514807 109.6688267 52.90625 107.75 C48.69285874 101.54299618 44.45453982 95.35322665 40.2121582 89.16601562 C37.44666013 85.12879216 34.70404792 81.07865939 32 77 C31.278125 77.70125 30.55625 78.4025 29.8125 79.125 C29.20341797 79.71667969 29.20341797 79.71667969 28.58203125 80.3203125 C28.05996094 80.87460937 27.53789063 81.42890625 27 82 C26.15695312 82.80050781 25.31390625 83.60101563 24.4453125 84.42578125 C20.86428927 88.76883788 21.27164363 93.46032637 21.29296875 98.8671875 C21.27784744 99.90191193 21.26272614 100.93663635 21.24714661 102.00271606 C21.20430586 105.29369969 21.19543474 108.58376542 21.1875 111.875 C21.164353 114.11200351 21.13898725 116.34898523 21.11132812 118.5859375 C21.0443507 124.05779008 21.0233522 129.52709327 21 135 C14.07 135 7.14 135 0 135 C0 90.45 0 45.9 0 0 Z " fill="#000000" transform="translate(1261,427)"/>
<path d="M0 0 C6.93 0 13.86 0 21 0 C21.01981934 2.29888184 21.03963867 4.59776367 21.06005859 6.96630859 C21.12751104 14.63374455 21.20513566 22.30105453 21.28752708 29.96834373 C21.33708931 34.60874934 21.38341629 39.24913647 21.421875 43.88964844 C21.45924231 48.38315007 21.50572716 52.87647978 21.55806351 57.36983109 C21.57633866 59.06864983 21.59154109 60.76750503 21.60334396 62.46638107 C21.66681337 71.30114861 21.96362158 80.03790819 22.91259766 88.82666016 C22.99105612 89.56313467 23.06951458 90.29960918 23.15035057 91.05840111 C24.01489386 98.34929241 25.74869431 104.21549033 30.375 109.9375 C37.31374538 115.38937137 44.37342941 116.77148192 53 116 C59.05928301 114.73224227 63.7110012 112.58823127 68 108 C75.68520543 95.87614457 74.32774379 79.7074246 74.4140625 65.91796875 C74.43281095 64.00839943 74.45238698 62.09883808 74.4727478 60.18928528 C74.52368708 55.20658096 74.56351519 50.22384988 74.60089111 45.24102783 C74.6411727 40.13913567 74.6921538 35.03735107 74.7421875 29.93554688 C74.8384934 19.95709997 74.92204956 9.97860719 75 0 C81.93 0 88.86 0 96 0 C96.09085439 11.70169635 96.16403285 23.40315329 96.20724869 35.10512447 C96.22800413 40.54051396 96.2560982 45.97564682 96.30175781 51.41088867 C96.34564953 56.66939836 96.36922731 61.92766331 96.37950897 67.18634224 C96.38682341 69.17912199 96.40110329 71.17189039 96.42292023 73.16456413 C96.62780799 92.67823856 94.81211459 111.33452071 80.83984375 126.28515625 C71.23971697 135.23304511 58.41074975 137.32775575 45.703125 137.15234375 C31.56927532 136.35578286 20.65501674 132.63600774 11 122 C-0.54232246 106.36565613 -0.30024903 85.98711527 -0.1953125 67.48046875 C-0.19157437 65.52606858 -0.18873119 63.57166652 -0.18673706 61.61726379 C-0.17916351 56.51608957 -0.15957021 51.41503235 -0.1373291 46.31390381 C-0.11673413 41.09144676 -0.10770638 35.86897048 -0.09765625 30.64648438 C-0.07631735 20.43093036 -0.04118767 10.21549329 0 0 Z " fill="#000000" transform="translate(1660,427)"/>
<path d="M0 0 C1.32 0 2.64 0 4 0 C21.81053506 36.53616616 21.81053506 36.53616616 29.0168457 51.65844727 C32.6521654 59.28478358 36.3232403 66.89359223 40 74.5 C45.15108726 85.15876683 50.28344808 95.826218 55.37890625 106.51171875 C57.21038817 110.35236883 59.05326983 114.18732092 60.90234375 118.01953125 C61.36995117 118.99212891 61.83755859 119.96472656 62.31933594 120.96679688 C63.21148849 122.82242324 64.1065347 124.67666199 65.00488281 126.52929688 C65.5960791 127.76196289 65.5960791 127.76196289 66.19921875 129.01953125 C66.72261841 130.10391479 66.72261841 130.10391479 67.2565918 131.21020508 C68 133 68 133 68 135 C59.75 135 51.5 135 43 135 C39.37 126.75 35.74 118.5 32 110 C1.805 109.505 1.805 109.505 -29 109 C-29.33 110.65 -29.66 112.3 -30 114 C-30.63003554 115.6283688 -31.30975523 117.2381643 -32.03125 118.828125 C-32.42957031 119.70984375 -32.82789063 120.5915625 -33.23828125 121.5 C-33.86283203 122.86125 -33.86283203 122.86125 -34.5 124.25 C-34.91636719 125.17296875 -35.33273437 126.0959375 -35.76171875 127.046875 C-38.85575303 133.85575303 -38.85575303 133.85575303 -40 135 C-41.70772358 135.08713831 -43.41898649 135.10700007 -45.12890625 135.09765625 C-46.68061523 135.09282227 -46.68061523 135.09282227 -48.26367188 135.08789062 C-49.35228516 135.07951172 -50.44089844 135.07113281 -51.5625 135.0625 C-53.2012207 135.05573242 -53.2012207 135.05573242 -54.87304688 135.04882812 C-57.58208495 135.03699826 -60.29101599 135.02051543 -63 135 C-62.36462802 130.6489277 -60.80216045 127.20780192 -58.859375 123.27734375 C-58.54137939 122.62886978 -58.22338379 121.98039581 -57.89575195 121.31227112 C-57.21037345 119.91549351 -56.5225036 118.51993616 -55.83239746 117.12548828 C-53.97964546 113.38028395 -52.14634146 109.62558485 -50.3125 105.87109375 C-49.75583649 104.73267532 -49.75583649 104.73267532 -49.18792725 103.57125854 C-45.94532837 96.92401138 -42.83141508 90.22359128 -39.75 83.5 C-33.93615864 70.84868842 -27.82907137 58.34840017 -21.69946289 45.84768677 C-14.25524471 30.65927896 -7.02193204 15.38836445 0 0 Z M2 41 C-2.62904087 49.9634469 -6.8021978 59.08982743 -10.86132812 68.32177734 C-11.8895862 70.65814216 -12.92502952 72.99123726 -13.9609375 75.32421875 C-14.61761622 76.81231088 -15.27388219 78.30058525 -15.9296875 79.7890625 C-16.23897186 80.48480377 -16.54825623 81.18054504 -16.86691284 81.89736938 C-18.46219128 85.31966497 -18.46219128 85.31966497 -19 89 C-5.14 89 8.72 89 23 89 C21.13891447 83.4167434 19.4097311 78.40524319 17.00390625 73.12890625 C16.7290892 72.52167221 16.45427216 71.91443817 16.17112732 71.2888031 C15.3057611 69.37810505 14.43459616 67.47013445 13.5625 65.5625 C9.86316937 57.44345915 6.20352597 49.3311098 3 41 C2.67 41 2.34 41 2 41 Z " fill="#000000" transform="translate(1071,427)"/>
<path d="M0 0 C0.99 0.99 0.99 0.99 2 2 C1.72885786 6.78434673 -0.79095375 10.71273173 -3.0625 14.8125 C-3.43955078 15.50537109 -3.81660156 16.19824219 -4.20507812 16.91210938 C-5.13083852 18.61128985 -6.06462312 20.30609425 -7 22 C-7.60585937 21.60167969 -8.21171875 21.20335937 -8.8359375 20.79296875 C-21.02957432 13.08283839 -33.25321631 10.95299358 -47.4453125 13.65625 C-58.10037237 16.81734193 -66.59672254 23.79919869 -72.37109375 33.2421875 C-79.88869778 47.20663889 -81.06000712 62.67324458 -77.375 77.9375 C-74.09487336 88.76421172 -68.37268854 98.65597212 -58.39453125 104.53515625 C-45.7711154 110.64211201 -32.52541207 111.75356342 -19.10644531 107.23461914 C-15.11439225 105.78931113 -11.54007151 104.36004768 -8 102 C-5.98828125 101.94921875 -5.98828125 101.94921875 -4 103 C-2.83258188 105.31983086 -1.98517488 107.37038767 -1.1875 109.8125 C-0.74792969 111.05644531 -0.30835938 112.30039062 0.14453125 113.58203125 C1.35238463 118.40792946 1.35238463 118.40792946 0 121 C-12.1988366 130.51564578 -31.29635596 131.36632073 -46 130 C-63.08993553 127.71257786 -78.00780654 119.81793293 -89.05859375 106.5234375 C-101.68887521 89.41144326 -105.46598557 68.47568631 -102.68652344 47.65136719 C-99.59652254 29.92535183 -90.3572257 14.80137486 -76 4 C-53.1179606 -10.79392319 -24.4118828 -12.41073907 0 0 Z " fill="#000000" transform="translate(1240,433)"/>
<path d="M0 0 C-1.44323469 4.73789165 -3.37226733 8.98858151 -5.625 13.375 C-5.94984375 14.01566406 -6.2746875 14.65632813 -6.609375 15.31640625 C-7.40257407 16.87947501 -8.20077031 18.44000622 -9 20 C-10.09699219 19.43410156 -11.19398437 18.86820312 -12.32421875 18.28515625 C-13.77848273 17.54395074 -15.23291893 16.80308305 -16.6875 16.0625 C-17.40873047 15.68931641 -18.12996094 15.31613281 -18.87304688 14.93164062 C-29.09760851 9.74932857 -41.30648157 9.22988719 -52.3125 12.5 C-62.7140038 16.5418887 -70.69258036 23.16608894 -76 33 C-82.51671057 47.8270112 -83.533127 65.48233121 -78.328125 80.9140625 C-73.45625765 92.23398959 -66.79695102 99.7597066 -55.65625 104.9609375 C-42.56080074 110.08356912 -28.75686024 108.2425453 -16 103 C-13.99300751 102.01410895 -11.98969233 101.02035504 -10 100 C-9.01 100 -8.02 100 -7 100 C-5.96772138 102.60014527 -4.94894848 105.20426369 -3.9375 107.8125 C-3.64294922 108.55048828 -3.34839844 109.28847656 -3.04492188 110.04882812 C-0.88671875 115.66015625 -0.88671875 115.66015625 -2 119 C-18.33771587 128.86428128 -39.07660711 130.90363994 -57.5 126.4375 C-73.65891896 122.02519101 -86.75711993 111.87425869 -96 98 C-106.29629902 79.46199225 -108.49568131 58.31590168 -103.18359375 37.85546875 C-99.53764556 25.97181337 -93.75005805 16.78017873 -85 8 C-84.38511719 7.36191406 -83.77023437 6.72382813 -83.13671875 6.06640625 C-61.94572423 -14.30780476 -24.04914537 -15.51557766 0 0 Z " fill="#000000" transform="translate(1643,435)"/>
<path d="M0 0 C-0.57665391 4.7871428 -2.64082996 8.25128824 -5.0625 12.3125 C-5.43955078 12.95767578 -5.81660156 13.60285156 -6.20507812 14.26757812 C-7.13037493 15.84878152 -8.06432681 17.4249146 -9 19 C-9.65226563 18.59007812 -10.30453125 18.18015625 -10.9765625 17.7578125 C-11.85054687 17.21898437 -12.72453125 16.68015625 -13.625 16.125 C-14.48351562 15.59132813 -15.34203125 15.05765625 -16.2265625 14.5078125 C-21.68355715 11.54105203 -26.30330652 10.70639236 -32.5 10.6875 C-33.7684375 10.67074219 -35.036875 10.65398437 -36.34375 10.63671875 C-41.52901097 11.15192096 -44.78157219 12.68278075 -48.3125 16.5 C-51.14732915 20.69974689 -51.4089695 24.01057209 -51 29 C-48.93370667 36.94728202 -42.73070936 40.98687009 -36 45 C-31.81834475 47.3608672 -27.60457586 49.66148447 -23.34570312 51.88012695 C-10.2300285 58.81908365 -0.03653118 67.30319236 5.25 81.3125 C7.41673853 91.96563113 6.0682853 102.52502321 0.25 111.8125 C-7.0153108 121.83361834 -16.77604632 126.67355586 -28.875 128.625 C-30.24845142 128.76600072 -31.62364474 128.89093034 -33 129 C-33.64195312 129.05414062 -34.28390625 129.10828125 -34.9453125 129.1640625 C-46.15969395 129.63310507 -56.9395319 126.97497296 -66.9375 122.0625 C-67.62980713 121.72669922 -68.32211426 121.39089844 -69.03540039 121.04492188 C-73.75350733 118.57572153 -73.75350733 118.57572153 -74.80664062 116.1159668 C-75.04861846 113.46795936 -74.46922738 112.38608487 -73.12890625 110.109375 C-72.71962891 109.40039062 -72.31035156 108.69140625 -71.88867188 107.9609375 C-71.45103516 107.23132813 -71.01339844 106.50171875 -70.5625 105.75 C-70.12873047 105.00492188 -69.69496094 104.25984375 -69.24804688 103.4921875 C-68.1763557 101.65500263 -67.08960023 99.82662026 -66 98 C-61.17959479 99.82022891 -56.65237211 102.15786122 -52.08398438 104.52148438 C-44.63407849 108.31489591 -37.43558398 109.3266767 -29.19921875 107.31640625 C-25.05039878 105.83512386 -22.46774364 104.50196878 -19.4375 101.25 C-17.1161488 96.00172773 -16.28625061 91.51198769 -17.875 86 C-22.32296641 76.10279335 -32.40166603 72.08966459 -41.61181641 67.64770508 C-55.7711888 60.79805911 -66.97501674 52.49995216 -72.3125 37.25 C-74.49530012 26.71379174 -73.42742477 16.24280941 -68.25 6.8125 C-60.2160337 -3.22995788 -51.72281748 -7.98171385 -38.83984375 -9.72265625 C-24.95381447 -11.07878841 -11.36771978 -8.37621458 0 0 Z " fill="#000000" transform="translate(915,435)"/>
<path d="M0 0 C12.76062571 -0.41016297 23.34439274 3.055116 33.9375 10.1171875 C33.36084609 14.9043303 31.29667004 18.36847574 28.875 22.4296875 C28.49794922 23.07486328 28.12089844 23.72003906 27.73242188 24.38476562 C26.80712507 25.96596902 25.87317319 27.5421021 24.9375 29.1171875 C24.28523438 28.70726562 23.63296875 28.29734375 22.9609375 27.875 C22.08695313 27.33617187 21.21296875 26.79734375 20.3125 26.2421875 C19.45398437 25.70851563 18.59546875 25.17484375 17.7109375 24.625 C12.25394285 21.65823953 7.63419348 20.82357986 1.4375 20.8046875 C0.1690625 20.78792969 -1.099375 20.77117187 -2.40625 20.75390625 C-7.41643783 21.25171337 -10.68828002 22.85439076 -14.375 26.2421875 C-17.36896544 31.3430175 -17.58517337 35.98916022 -16.1875 41.6796875 C-10.81036671 51.91737359 1.14637812 56.75371497 10.83886719 61.97705078 C23.01078282 68.58975972 34.06437205 76.63108921 38.9375 90.1171875 C41.42102467 100.11537713 40.51166635 110.43457951 35.6484375 119.52734375 C29.31151277 129.6765895 20.54252456 135.42316394 8.9375 138.1171875 C-8.93438225 140.99974915 -26.04320769 137.42454497 -41.0625 127.1171875 C-40.44987369 124.29638371 -39.59095191 121.97909894 -38.21484375 119.4453125 C-37.67827148 118.44951172 -37.67827148 118.44951172 -37.13085938 117.43359375 C-36.75767578 116.75167969 -36.38449219 116.06976562 -36 115.3671875 C-35.62294922 114.66980469 -35.24589844 113.97242188 -34.85742188 113.25390625 C-33.92976612 111.53950448 -32.99666546 109.82805089 -32.0625 108.1171875 C-27.24209479 109.93741641 -22.71487211 112.27504872 -18.14648438 114.63867188 C-10.72323129 118.4185121 -3.46098758 119.50257343 4.73828125 117.3984375 C9.63837887 115.59810534 13.51494487 113.96229777 15.9375 109.1171875 C17.52760231 102.53282019 17.08764927 98.05400727 13.9375 92.1171875 C13.6075 91.1271875 13.2775 90.1371875 12.9375 89.1171875 C11.09936919 88.02843294 11.09936919 88.02843294 8.9375 87.1171875 C7.57725722 86.29380946 6.22375951 85.45924426 4.875 84.6171875 C1.45422892 82.52812819 -2.0099834 80.61408824 -5.58984375 78.81640625 C-18.76882633 72.18633605 -31.89880239 64.94335523 -37.08984375 50.19921875 C-40.07947886 39.32907081 -40.39794186 27.96039596 -34.7734375 17.78515625 C-33.31657675 15.74788841 -31.78303097 13.93580099 -30.0625 12.1171875 C-29.32580078 11.30314453 -29.32580078 11.30314453 -28.57421875 10.47265625 C-21.0182327 3.06666496 -10.22814135 0.5811444 0 0 Z " fill="#000000" transform="translate(1404.0625,424.8828125)"/>
<path d="M0 0 C19.47 0 38.94 0 59 0 C59 6.27 59 12.54 59 19 C46.46 19 33.92 19 21 19 C21 30.88 21 42.76 21 55 C31.23 55 41.46 55 52 55 C52 61.27 52 67.54 52 74 C41.77 74 31.54 74 21 74 C21 87.86 21 101.72 21 116 C35.52 116 50.04 116 65 116 C65 122.27 65 128.54 65 135 C43.55 135 22.1 135 0 135 C0 90.45 0 45.9 0 0 Z " fill="#000000" transform="translate(1891,427)"/>
<path d="M0 0 C19.47 0 38.94 0 59 0 C59 6.27 59 12.54 59 19 C46.46 19 33.92 19 21 19 C21 30.88 21 42.76 21 55 C31.23 55 41.46 55 52 55 C52 61.27 52 67.54 52 74 C41.77 74 31.54 74 21 74 C21 87.86 21 101.72 21 116 C35.52 116 50.04 116 65 116 C65 122.27 65 128.54 65 135 C43.55 135 22.1 135 0 135 C0 90.45 0 45.9 0 0 Z " fill="#000000" transform="translate(1465,427)"/>
<path d="M0 0 C29.7 0 59.4 0 90 0 C90 6.27 90 12.54 90 19 C78.78 19 67.56 19 56 19 C56 57.28 56 95.56 56 135 C49.07 135 42.14 135 35 135 C35 96.72 35 58.44 35 19 C23.45 19 11.9 19 0 19 C0 12.73 0 6.46 0 0 Z " fill="#000000" transform="translate(927,427)"/>
</svg>
